<svg width="48" height="48" viewBox="0 0 48 48" fill="none" xmlns="http://www.w3.org/2000/svg">
<rect width="48" height="48" rx="6" fill="#91BD14"/>
<path d="M26.6999 18.2997C26.5166 18.4867 26.414 18.738 26.414 18.9997C26.414 19.2615 26.5166 19.5128 26.6999 19.6997L28.2999 21.2997C28.4868 21.483 28.7381 21.5856 28.9999 21.5856C29.2616 21.5856 29.5129 21.483 29.6999 21.2997L33.4699 17.5297C33.9727 18.6409 34.1249 19.879 33.9063 21.0789C33.6877 22.2788 33.1086 23.3836 32.2461 24.246C31.3837 25.1084 30.2789 25.6876 29.079 25.9062C27.8791 26.1248 26.641 25.9726 25.5299 25.4697L18.6199 32.3797C18.222 32.7776 17.6825 33.0011 17.1199 33.0011C16.5572 33.0011 16.0177 32.7776 15.6199 32.3797C15.222 31.9819 14.9985 31.4423 14.9985 30.8797C14.9985 30.3171 15.222 29.7776 15.6199 29.3797L22.5299 22.4697C22.027 21.3585 21.8748 20.1205 22.0934 18.9206C22.312 17.7207 22.8911 16.6159 23.7536 15.7535C24.616 14.891 25.7208 14.3119 26.9207 14.0933C28.1206 13.8747 29.3587 14.0269 30.4699 14.5297L26.7099 18.2897L26.6999 18.2997Z" stroke="white" stroke-width="2" stroke-linecap="round" stroke-linejoin="round"/>
</svg>
