<svg width="24" height="24" viewBox="0 0 24 24" fill="none" xmlns="http://www.w3.org/2000/svg">
<path d="M21.5531 4.00007C21.4622 3.9907 21.3706 3.9907 21.2798 4.00007H2.6131C2.49346 4.00191 2.37462 4.01985 2.25977 4.0534L11.8931 13.6467L21.5531 4.00007Z" fill="#91BD14"/>
<path d="M22.5395 4.92662L12.8328 14.5933C12.583 14.8416 12.245 14.981 11.8928 14.981C11.5406 14.981 11.2026 14.8416 10.9528 14.5933L1.3328 4.99995C1.30323 5.10865 1.28755 5.22065 1.28613 5.33329V18.6666C1.28613 19.0202 1.42661 19.3594 1.67666 19.6094C1.92671 19.8595 2.26584 20 2.61947 20H21.2861C21.6398 20 21.9789 19.8595 22.2289 19.6094C22.479 19.3594 22.6195 19.0202 22.6195 18.6666V5.33329C22.6142 5.19439 22.5872 5.05718 22.5395 4.92662ZM3.5328 18.6666H2.60613V17.7133L7.4528 12.9066L8.3928 13.8466L3.5328 18.6666ZM21.2728 18.6666H20.3395L15.4795 13.8466L16.4195 12.9066L21.2661 17.7133L21.2728 18.6666Z" fill="#91BD14"/>
</svg>
