<svg width="24" height="24" viewBox="0 0 24 24" fill="none" xmlns="http://www.w3.org/2000/svg">
<path d="M10.1462 13.7599C11.5378 15.1717 13.2217 16.2617 15.0795 16.9533L17.5928 14.9533C17.6674 14.9019 17.7557 14.8745 17.8462 14.8745C17.9367 14.8745 18.025 14.9019 18.0995 14.9533L22.7662 17.9599C22.9433 18.0664 23.0933 18.2127 23.2042 18.3871C23.3152 18.5616 23.384 18.7594 23.4054 18.965C23.4267 19.1706 23.3999 19.3784 23.3272 19.5719C23.2544 19.7654 23.1377 19.9393 22.9862 20.0799L20.7995 22.2399C20.4864 22.5493 20.1015 22.7764 19.6792 22.9009C19.2569 23.0254 18.8104 23.0434 18.3795 22.9533C14.081 22.0655 10.1189 19.9863 6.94617 16.9533C3.84383 13.8901 1.69702 9.99249 0.766175 5.73326C0.674219 5.30902 0.693411 4.86822 0.821892 4.45357C0.950373 4.03893 1.18379 3.66451 1.49951 3.36659L3.76618 1.17993C3.90644 1.03578 4.0775 0.925242 4.26654 0.856577C4.45558 0.787912 4.65771 0.762904 4.85778 0.783425C5.05786 0.803945 5.2507 0.869463 5.42187 0.975072C5.59303 1.08068 5.73809 1.22364 5.84618 1.39326L8.95284 5.99993C9.00643 6.07226 9.03535 6.1599 9.03535 6.24993C9.03535 6.33995 9.00643 6.42759 8.95284 6.49993L6.90617 8.95993C7.61656 10.7806 8.72333 12.4202 10.1462 13.7599Z" fill="#91BD14"/>
</svg>
