<svg width="20" height="20" viewBox="0 0 20 20" fill="none" xmlns="http://www.w3.org/2000/svg">
<path fill-rule="evenodd" clip-rule="evenodd" d="M11.1782 9.99999L15.5889 14.4107C15.9144 14.7362 15.9144 15.2638 15.5889 15.5892C15.2635 15.9147 14.7359 15.9147 14.4104 15.5892L9.99967 11.1785L5.58893 15.5892C5.26349 15.9147 4.73585 15.9147 4.41042 15.5892C4.08498 15.2638 4.08498 14.7362 4.41042 14.4107L8.82116 9.99999L4.41042 5.58925C4.08498 5.26381 4.08498 4.73617 4.41042 4.41073C4.73585 4.0853 5.26349 4.0853 5.58893 4.41073L9.99967 8.82148L14.4104 4.41073C14.7359 4.0853 15.2635 4.0853 15.5889 4.41073C15.9144 4.73617 15.9144 5.26381 15.5889 5.58925L11.1782 9.99999Z" fill="#084D45"/>
<mask id="mask0_694_4669" style="mask-type:alpha" maskUnits="userSpaceOnUse" x="4" y="4" width="12" height="12">
<path fill-rule="evenodd" clip-rule="evenodd" d="M11.1782 9.99999L15.5889 14.4107C15.9144 14.7362 15.9144 15.2638 15.5889 15.5892C15.2635 15.9147 14.7359 15.9147 14.4104 15.5892L9.99967 11.1785L5.58893 15.5892C5.26349 15.9147 4.73585 15.9147 4.41042 15.5892C4.08498 15.2638 4.08498 14.7362 4.41042 14.4107L8.82116 9.99999L4.41042 5.58925C4.08498 5.26381 4.08498 4.73617 4.41042 4.41073C4.73585 4.0853 5.26349 4.0853 5.58893 4.41073L9.99967 8.82148L14.4104 4.41073C14.7359 4.0853 15.2635 4.0853 15.5889 4.41073C15.9144 4.73617 15.9144 5.26381 15.5889 5.58925L11.1782 9.99999Z" fill="white"/>
</mask>
<g mask="url(#mask0_694_4669)">
<rect x="20" width="20" height="20" transform="rotate(90 20 0)" fill="#084D45"/>
</g>
</svg>
