<svg width="20" height="20" viewBox="0 0 20 20" fill="none" xmlns="http://www.w3.org/2000/svg">
<path fill-rule="evenodd" clip-rule="evenodd" d="M8.29905 14.956L7.49805 15.752C6.80305 16.441 5.67305 16.441 4.97805 15.752C4.64405 15.421 4.46005 14.981 4.46005 14.513C4.46005 14.045 4.64405 13.605 4.97805 13.274L7.92805 10.347C8.53905 9.74099 9.69005 8.84799 10.529 9.67899C10.914 10.061 11.535 10.059 11.917 9.674C12.299 9.28899 12.297 8.66799 11.912 8.28599C10.486 6.87199 8.38105 7.13299 6.54605 8.95299L3.59605 11.881C2.88805 12.584 2.49805 13.519 2.49805 14.513C2.49805 15.507 2.88805 16.442 3.59605 17.145C4.32505 17.868 5.28205 18.229 6.23905 18.229C7.19605 18.229 8.15305 17.868 8.88205 17.144L9.68405 16.348C10.069 15.966 10.071 15.345 9.68905 14.96C9.30705 14.575 8.68405 14.574 8.29905 14.956ZM17.241 3.58399C15.711 2.06499 13.57 1.98299 12.153 3.38899L11.154 4.38099C10.769 4.76299 10.766 5.38399 11.148 5.76899C11.531 6.15399 12.152 6.15599 12.537 5.77399L13.536 4.78299C14.269 4.05399 15.231 4.35599 15.858 4.97799C16.192 5.30999 16.376 5.74999 16.376 6.21699C16.376 6.68499 16.192 7.12499 15.858 7.45599L12.711 10.579C11.272 12.007 10.596 11.337 10.308 11.051C9.92305 10.669 9.30205 10.672 8.92005 11.056C8.53705 11.44 8.54005 12.062 8.92505 12.444C9.58605 13.099 10.34 13.424 11.131 13.424C12.099 13.424 13.121 12.937 14.094 11.971L17.241 8.84799C17.949 8.14499 18.34 7.20999 18.34 6.21499C18.34 5.223 17.949 4.28799 17.241 3.58399Z" fill="#91BD14"/>
<mask id="mask0_687_2211" style="mask-type:alpha" maskUnits="userSpaceOnUse" x="2" y="2" width="17" height="17">
<path fill-rule="evenodd" clip-rule="evenodd" d="M8.29905 14.956L7.49805 15.752C6.80305 16.441 5.67305 16.441 4.97805 15.752C4.64405 15.421 4.46005 14.981 4.46005 14.513C4.46005 14.045 4.64405 13.605 4.97805 13.274L7.92805 10.347C8.53905 9.74099 9.69005 8.84799 10.529 9.67899C10.914 10.061 11.535 10.059 11.917 9.674C12.299 9.28899 12.297 8.66799 11.912 8.28599C10.486 6.87199 8.38105 7.13299 6.54605 8.95299L3.59605 11.881C2.88805 12.584 2.49805 13.519 2.49805 14.513C2.49805 15.507 2.88805 16.442 3.59605 17.145C4.32505 17.868 5.28205 18.229 6.23905 18.229C7.19605 18.229 8.15305 17.868 8.88205 17.144L9.68405 16.348C10.069 15.966 10.071 15.345 9.68905 14.96C9.30705 14.575 8.68405 14.574 8.29905 14.956ZM17.241 3.58399C15.711 2.06499 13.57 1.98299 12.153 3.38899L11.154 4.38099C10.769 4.76299 10.766 5.38399 11.148 5.76899C11.531 6.15399 12.152 6.15599 12.537 5.77399L13.536 4.78299C14.269 4.05399 15.231 4.35599 15.858 4.97799C16.192 5.30999 16.376 5.74999 16.376 6.21699C16.376 6.68499 16.192 7.12499 15.858 7.45599L12.711 10.579C11.272 12.007 10.596 11.337 10.308 11.051C9.92305 10.669 9.30205 10.672 8.92005 11.056C8.53705 11.44 8.54005 12.062 8.92505 12.444C9.58605 13.099 10.34 13.424 11.131 13.424C12.099 13.424 13.121 12.937 14.094 11.971L17.241 8.84799C17.949 8.14499 18.34 7.20999 18.34 6.21499C18.34 5.223 17.949 4.28799 17.241 3.58399Z" fill="white"/>
</mask>
<g mask="url(#mask0_687_2211)">
<rect width="20" height="20" fill="#91BD14"/>
</g>
</svg>
