<svg width="20" height="20" viewBox="0 0 20 20" fill="none" xmlns="http://www.w3.org/2000/svg">
<path fill-rule="evenodd" clip-rule="evenodd" d="M18.6936 4.519C18.0226 4.816 17.3026 5.017 16.5466 5.108C17.3186 4.645 17.9116 3.913 18.1906 3.04C17.4676 3.469 16.6686 3.779 15.8166 3.947C15.1346 3.22 14.1636 2.767 13.0876 2.767C11.0236 2.767 9.35056 4.44 9.35056 6.504C9.35056 6.797 9.38356 7.082 9.44756 7.356C6.34156 7.2 3.58656 5.712 1.74356 3.451C1.42256 4.003 1.23756 4.645 1.23756 5.33C1.23756 6.627 1.89756 7.77 2.90056 8.441C2.28856 8.421 1.71156 8.253 1.20756 7.973C1.20756 7.989 1.20756 8.004 1.20756 8.02C1.20756 9.832 2.49656 11.341 4.20556 11.685C3.89256 11.771 3.56156 11.816 3.22156 11.816C2.98056 11.816 2.74656 11.793 2.51856 11.75C2.99456 13.234 4.37456 14.315 6.01056 14.346C4.73156 15.348 3.11956 15.946 1.36856 15.946C1.06656 15.946 0.769563 15.928 0.476562 15.893C2.13056 16.954 4.09456 17.573 6.20556 17.573C13.0806 17.573 16.8396 11.878 16.8396 6.938C16.8396 6.777 16.8366 6.616 16.8286 6.455C17.5596 5.927 18.1926 5.269 18.6936 4.519Z" fill="#91BD14"/>
<mask id="mask0_687_2210" style="mask-type:alpha" maskUnits="userSpaceOnUse" x="0" y="2" width="19" height="16">
<path fill-rule="evenodd" clip-rule="evenodd" d="M18.6936 4.519C18.0226 4.816 17.3026 5.017 16.5466 5.108C17.3186 4.645 17.9116 3.913 18.1906 3.04C17.4676 3.469 16.6686 3.779 15.8166 3.947C15.1346 3.22 14.1636 2.767 13.0876 2.767C11.0236 2.767 9.35056 4.44 9.35056 6.504C9.35056 6.797 9.38356 7.082 9.44756 7.356C6.34156 7.2 3.58656 5.712 1.74356 3.451C1.42256 4.003 1.23756 4.645 1.23756 5.33C1.23756 6.627 1.89756 7.77 2.90056 8.441C2.28856 8.421 1.71156 8.253 1.20756 7.973C1.20756 7.989 1.20756 8.004 1.20756 8.02C1.20756 9.832 2.49656 11.341 4.20556 11.685C3.89256 11.771 3.56156 11.816 3.22156 11.816C2.98056 11.816 2.74656 11.793 2.51856 11.75C2.99456 13.234 4.37456 14.315 6.01056 14.346C4.73156 15.348 3.11956 15.946 1.36856 15.946C1.06656 15.946 0.769563 15.928 0.476562 15.893C2.13056 16.954 4.09456 17.573 6.20556 17.573C13.0806 17.573 16.8396 11.878 16.8396 6.938C16.8396 6.777 16.8366 6.616 16.8286 6.455C17.5596 5.927 18.1926 5.269 18.6936 4.519Z" fill="white"/>
</mask>
<g mask="url(#mask0_687_2210)">
<rect width="20" height="20" fill="#91BD14"/>
</g>
</svg>
