<svg width="76" height="20" viewBox="0 0 76 20" fill="none" xmlns="http://www.w3.org/2000/svg">
<path fill-rule="evenodd" clip-rule="evenodd" d="M11.5155 6.37982L10.6904 7.95682L10.691 7.95462L9.84029 6.37763C9.81448 6.32768 9.74758 6.26538 9.65554 6.37833L9.65654 6.37708C9.43189 6.62941 9.14789 6.82585 8.82845 6.9499C8.509 7.07395 8.16345 7.12197 7.82083 7.08993C7.47822 7.05788 7.14856 6.94671 6.85958 6.76576C6.57061 6.58481 6.33076 6.33937 6.16022 6.05008C5.98967 5.76079 5.8934 5.43611 5.87951 5.10334C5.86563 4.77056 5.93452 4.43943 6.08041 4.13777C6.2263 3.83612 6.44491 3.57277 6.71787 3.36987C6.99082 3.16696 7.31014 3.03044 7.64897 2.97177L7.57468 2.9811C7.00247 2.55804 6.56806 2.52512 6.44783 2.57999C4.7913 3.29771 4.43572 5.42671 6.38375 7.5184C6.3907 7.52808 6.39424 7.53966 6.39385 7.55144C6.39346 7.56322 6.38917 7.57457 6.3816 7.5838C6.37403 7.59303 6.36359 7.59966 6.35182 7.60271C6.34005 7.60575 6.32759 7.60505 6.31626 7.6007C3.63387 6.24811 4.07843 3.5166 4.29257 2.20095C4.34268 1.89302 4.38018 1.66264 4.362 1.54567C4.29416 1.10515 4.03296 0.695747 3.85248 0.412871C3.80816 0.343398 3.76871 0.281556 3.73818 0.22876C3.72406 0.204688 3.71696 0.177365 3.71762 0.149697C3.71827 0.122029 3.72667 0.095051 3.74191 0.071633C3.75716 0.0482151 3.77868 0.0292332 3.80418 0.0167068C3.82969 0.00418035 3.85823 -0.00142206 3.88676 0.000495568C4.13469 0.0157153 4.56167 0.274065 5.137 0.622175C6.38697 1.37849 8.33721 2.55851 10.6728 2.58932C13.009 2.5585 14.9602 1.37789 16.2101 0.621602C16.7849 0.273781 17.2114 0.0157069 17.4588 0.000495568C17.4881 -0.00178555 17.5174 0.00383875 17.5435 0.0167406C17.5696 0.0296425 17.5915 0.0493143 17.6068 0.0735599C17.622 0.0978055 17.63 0.125671 17.6298 0.154045C17.6296 0.18242 17.6213 0.210187 17.6057 0.234247C17.5761 0.285175 17.5379 0.344897 17.4951 0.412046C17.3148 0.694336 17.0506 1.10789 16.9819 1.55116C16.9639 1.66728 17.0012 1.89649 17.0512 2.20313C17.2651 3.51635 17.7104 6.2497 15.0282 7.6029C15.0169 7.60724 15.0044 7.60795 14.9927 7.6049C14.9809 7.60186 14.9704 7.59523 14.9629 7.586C14.9553 7.57676 14.951 7.56542 14.9506 7.55364C14.9502 7.54186 14.9538 7.53027 14.9607 7.52059C16.9088 5.42945 16.5532 3.30045 14.8966 2.58219C14.7764 2.53006 14.342 2.56024 13.7698 2.98329L13.7403 2.97945C14.077 3.04282 14.3931 3.18321 14.6623 3.38889C14.9314 3.59457 15.1458 3.85958 15.2876 4.16178C15.4293 4.46399 15.4942 4.79461 15.477 5.12605C15.4597 5.45749 15.3607 5.78012 15.1883 6.067C15.0159 6.35389 14.7751 6.5967 14.4859 6.77515C14.1967 6.95361 13.8676 7.06253 13.526 7.09283C13.1845 7.12312 12.8404 7.07391 12.5225 6.9493C12.2046 6.82469 11.9222 6.6283 11.6987 6.37653L11.7061 6.38421C11.6125 6.26624 11.5411 6.33099 11.5155 6.37982ZM8.76673 3.91799C8.48531 3.76488 8.16182 3.69982 7.84066 3.73174C7.48294 3.76729 7.14882 3.92105 6.8946 4.16713C6.64038 4.4132 6.48159 4.73654 6.445 5.08267C6.41214 5.39342 6.47952 5.7064 6.63787 5.97862C6.79622 6.25084 7.03778 6.46896 7.32939 6.60302C7.621 6.73708 7.94835 6.78051 8.26649 6.72735C8.58463 6.67419 8.87796 6.52704 9.1062 6.30611C9.33445 6.08518 9.48641 5.80131 9.54123 5.49347C9.59604 5.18563 9.55102 4.86891 9.41234 4.58682C9.27367 4.30473 9.04814 4.07109 8.76673 3.91799ZM14.6675 5.97635C14.8254 5.7038 14.8921 5.39066 14.8586 5.07992C14.8213 4.73408 14.6619 4.41123 14.4074 4.1657C14.153 3.92017 13.8188 3.76692 13.4613 3.73174C13.14 3.70022 12.8166 3.76571 12.5354 3.91921C12.2541 4.07271 12.0289 4.30669 11.8906 4.58902C11.7524 4.87134 11.7078 5.18816 11.7631 5.49597C11.8185 5.80377 11.9709 6.08745 12.1996 6.30805C12.4282 6.52865 12.7218 6.67534 13.0401 6.72799C13.3584 6.78063 13.6857 6.73664 13.9771 6.60205C14.2685 6.46747 14.5097 6.24889 14.6675 5.97635ZM6.41799 19.1068C7.07139 19.3875 7.75207 19.6044 8.44994 19.7543C8.79891 18.5223 9.2699 17.3256 9.85638 16.1811C11.0022 13.9543 12.5647 11.9523 14.4647 10.2764H11.4556C9.865 11.9795 8.55753 13.9113 7.58 16.0028L7.54257 16.0856C7.09244 17.065 6.71658 18.0747 6.41799 19.1068ZM6.4815 14.7117C6.88447 13.9157 7.33338 13.1422 7.82612 12.395H7.82159C7.0877 11.8722 6.55648 11.1262 6.31307 10.2764H3.48943C3.63735 11.1779 3.98034 12.0389 4.49595 12.8032C5.01156 13.5675 5.68818 14.2178 6.4815 14.7117ZM8.63757 11.2351L8.64049 11.2372H8.63596L8.63757 11.2351ZM9.39815 10.2764C9.13484 10.5896 8.88131 10.9091 8.63757 11.2351C8.29694 10.9828 8.02534 10.6537 7.84654 10.2764H9.39815ZM1.89982 10.2764H0C0.120875 11.9106 0.636408 13.4946 1.50514 14.901C2.37388 16.3073 3.57157 17.4968 5.00191 18.3738C5.23671 17.6055 5.51193 16.8493 5.82649 16.1081C4.75982 15.4855 3.85252 14.6375 3.17252 13.6276C2.49251 12.6177 2.05742 11.4721 1.89982 10.2764ZM11.26 16.856C10.7467 17.8563 10.329 18.8999 10.0123 19.9738C10.2687 19.9917 10.5269 20.0007 10.787 20.0007C11.2829 20.0006 11.7782 19.9676 12.2694 19.9019C12.9845 17.8148 14.1248 15.8876 15.6229 14.2342C17.121 12.5808 18.9466 11.2348 20.9916 10.2759H16.9186C14.5299 12.0144 12.5925 14.2673 11.26 16.856ZM21.3449 11.8024C18.0496 13.4424 15.4744 16.1751 14.0899 19.5008V19.5014C15.8869 18.9397 17.5014 17.934 18.7738 16.5838C20.0462 15.2336 20.9324 13.5855 21.3449 11.8024ZM49.5869 14.7601C50.3301 14.9655 51.0971 15.0681 51.8879 15.0681C52.8026 15.0681 53.5791 14.9328 54.2174 14.6621C54.8558 14.3915 55.3322 14.0275 55.6466 13.5701C55.9706 13.1035 56.1326 12.5901 56.1326 12.0301C56.1326 11.3768 55.9563 10.8588 55.6038 10.4761C55.2607 10.0935 54.8463 9.81346 54.3604 9.63613C53.8744 9.4588 53.2504 9.28146 52.4881 9.10413C51.7545 8.94546 51.2066 8.7868 50.8446 8.62813C50.4921 8.46013 50.3158 8.20813 50.3158 7.87213C50.3158 7.53613 50.4682 7.26546 50.7731 7.06013C51.0875 6.8548 51.5687 6.75213 52.2166 6.75213C53.1408 6.75213 54.065 7.0088 54.9892 7.52213L55.7038 5.80013C55.2465 5.52013 54.7129 5.30546 54.1031 5.15613C53.4933 5.0068 52.8693 4.93213 52.2309 4.93213C51.3162 4.93213 50.5397 5.06746 49.9013 5.33813C49.2725 5.6088 48.8009 5.97746 48.4864 6.44413C48.172 6.90146 48.0148 7.4148 48.0148 7.98413C48.0148 8.63746 48.1863 9.16013 48.5293 9.55213C48.8818 9.94413 49.3011 10.2288 49.787 10.4061C50.2729 10.5835 50.897 10.7608 51.6592 10.9381C52.1547 11.0501 52.5453 11.1528 52.8311 11.2461C53.1265 11.3395 53.3647 11.4655 53.5457 11.6241C53.7363 11.7735 53.8316 11.9648 53.8316 12.1981C53.8316 12.5155 53.6744 12.7721 53.3599 12.9681C53.0455 13.1548 52.5596 13.2481 51.9022 13.2481C51.3115 13.2481 50.7207 13.1548 50.13 12.9681C49.5393 12.7815 49.0295 12.5341 48.6008 12.2261L47.8147 13.9341C48.2625 14.2701 48.8533 14.5455 49.5869 14.7601ZM36.6455 5.10013V14.9001H34.7446L29.7568 8.95013V14.9001H27.4701V5.10013H29.3852L34.3588 11.0501V5.10013H36.6455ZM46.7586 13.0801V14.9001H39.0124V5.10013H46.5728V6.92013H41.3134V9.04813H45.9582V10.8121H41.3134V13.0801H46.7586ZM59.6473 6.94813H56.446V5.10013H65.164V6.94813H61.9626V14.9001H59.6473V6.94813ZM70.6896 5H67.3294V5.82892H68.5288V9H69.4816V5.82892H70.6896V5ZM74.5944 6.71566L74.6029 9H75.4961L75.4791 5H74.7049L73.3268 7.40964L71.9146 5H71.132V9H72.0252V6.77349L73.0971 8.58554H73.5225L74.5944 6.71566Z" fill="#084D45"/>
</svg>
