<svg width="20" height="20" viewBox="0 0 20 20" fill="none" xmlns="http://www.w3.org/2000/svg">
<path d="M13.1933 6.24996L16.1099 3.33329M17.7766 1.66663L16.1099 3.33329L17.7766 1.66663ZM9.76826 9.67496C10.1985 10.0995 10.5406 10.605 10.7747 11.1623C11.0089 11.7196 11.1304 12.3177 11.1325 12.9222C11.1345 13.5266 11.0169 14.1255 10.7865 14.6844C10.5561 15.2432 10.2175 15.751 9.79005 16.1784C9.36262 16.6058 8.85486 16.9445 8.29601 17.1749C7.73716 17.4053 7.13826 17.5228 6.53379 17.5208C5.92932 17.5188 5.33121 17.3972 4.77392 17.1631C4.21663 16.929 3.71115 16.5869 3.2866 16.1566C2.4517 15.2922 1.98973 14.1344 2.00017 12.9327C2.01062 11.731 2.49264 10.5814 3.34243 9.73162C4.19221 8.88184 5.34177 8.39981 6.54351 8.38937C7.74524 8.37893 8.903 8.8409 9.76743 9.67579L9.76826 9.67496ZM9.76826 9.67496L13.1933 6.24996L9.76826 9.67496ZM13.1933 6.24996L15.6933 8.74996L18.6099 5.83329L16.1099 3.33329L13.1933 6.24996Z" stroke="#91BD14" stroke-width="1.5" stroke-linecap="round" stroke-linejoin="round"/>
</svg>
