<svg width="20" height="20" viewBox="0 0 20 20" fill="none" xmlns="http://www.w3.org/2000/svg">
<path d="M17.6752 13.2417C17.145 14.4954 16.3158 15.6002 15.2601 16.4594C14.2043 17.3187 12.9541 17.9062 11.6189 18.1707C10.2836 18.4351 8.90386 18.3685 7.6003 17.9765C6.29673 17.5846 5.10903 16.8792 4.14102 15.9222C3.17302 14.9652 2.45419 13.7856 2.04737 12.4866C1.64055 11.1876 1.55814 9.80876 1.80734 8.47055C2.05653 7.13234 2.62975 5.87554 3.47688 4.81004C4.324 3.74455 5.41924 2.90278 6.66684 2.35835" stroke="#91BD14" stroke-width="1.5" stroke-linecap="round" stroke-linejoin="round"/>
<path d="M18.3333 10C18.3333 8.90566 18.1178 7.82202 17.699 6.81098C17.2802 5.79993 16.6664 4.88127 15.8926 4.10745C15.1187 3.33363 14.2001 2.7198 13.189 2.30101C12.178 1.88222 11.0943 1.66667 10 1.66667V10H18.3333Z" stroke="#91BD14" stroke-width="1.5" stroke-linecap="round" stroke-linejoin="round"/>
</svg>
